<svg id="Shape" xmlns="http://www.w3.org/2000/svg" width="40.401" height="35.645" viewBox="0 0 40.401 35.645">
  <path id="Path_4963" data-name="Path 4963" d="M119.982,189.674a.664.664,0,0,1-.432-.159l-4.316-3.675a.667.667,0,0,1,0-1.016l4.316-3.675a.667.667,0,1,1,.865,1.015l-3.72,3.168,3.72,3.168a.667.667,0,0,1-.433,1.175Zm0,0" transform="translate(-104.042 -163.743)" fill="#31274f"/>
  <path id="Path_4964" data-name="Path 4964" d="M250.375,189.674a.667.667,0,0,1-.433-1.175l3.72-3.168-3.72-3.168a.667.667,0,1,1,.865-1.015l4.316,3.675a.667.667,0,0,1,0,1.016l-4.316,3.675A.664.664,0,0,1,250.375,189.674Zm0,0" transform="translate(-225.914 -163.743)" fill="#31274f"/>
  <path id="Path_4965" data-name="Path 4965" d="M189.622,167.131a.681.681,0,0,1-.138-.014.667.667,0,0,1-.515-.79l2.69-12.772a.667.667,0,1,1,1.305.275l-2.69,12.772A.667.667,0,0,1,189.622,167.131Zm0,0" transform="translate(-170.949 -138.444)" fill="#31274f"/>
  <path id="Path_4966" data-name="Path 4966" d="M35.923,35.645H4.478A4.484,4.484,0,0,1,0,31.167V4.478A4.484,4.484,0,0,1,4.478,0H35.923A4.484,4.484,0,0,1,40.4,4.478V31.167A4.484,4.484,0,0,1,35.923,35.645ZM4.478,1.334A3.148,3.148,0,0,0,1.334,4.478V31.167a3.148,3.148,0,0,0,3.144,3.144H35.923a3.148,3.148,0,0,0,3.144-3.144V4.478a3.148,3.148,0,0,0-3.144-3.144Zm0,0" fill="#31274f"/>
  <path id="Path_4967" data-name="Path 4967" d="M39.734,99.424H.667a.667.667,0,0,1,0-1.334H39.734a.667.667,0,0,1,0,1.334Zm0,0" transform="translate(0 -88.743)" fill="#31274f"/>
  <path id="Path_4968" data-name="Path 4968" d="M99.561,38.511a2.111,2.111,0,1,1,2.111-2.111,2.114,2.114,0,0,1-2.111,2.111Zm0-2.888a.777.777,0,1,0,.777.777.778.778,0,0,0-.777-.777Zm0,0" transform="translate(-88.164 -31.022)" fill="#31274f"/>
  <path id="Path_4969" data-name="Path 4969" d="M31.5,38.3a2.111,2.111,0,1,1,2.111-2.111A2.113,2.113,0,0,1,31.5,38.3Zm0-2.888a.777.777,0,1,0,.777.777A.778.778,0,0,0,31.5,35.408Zm0,0" transform="translate(-26.587 -30.827)" fill="#31274f"/>
  <path id="Path_4970" data-name="Path 4970" d="M167.626,38.725a2.111,2.111,0,1,1,2.111-2.111A2.113,2.113,0,0,1,167.626,38.725Zm0-2.888a.777.777,0,1,0,.777.777A.778.778,0,0,0,167.626,35.838Zm0,0" transform="translate(-149.744 -31.216)" fill="#31274f"/>
</svg>
