<svg xmlns="http://www.w3.org/2000/svg" width="40.401" height="26.535" viewBox="0 0 40.401 26.535">
  <g id="Shape" transform="translate(0 -4.555)">
    <path id="Path_7727" data-name="Path 7727" d="M40.38,25.284a37.713,37.713,0,0,0-1.107-7.3,28.005,28.005,0,0,0-2.264-6.139c-3.523-6.19-7.347-5.233-11.926-4.026a32.778,32.778,0,0,1-4.63.906h-.5a32.778,32.778,0,0,1-4.63-.906C10.74,6.665,6.916,5.659,3.393,11.9a25.654,25.654,0,0,0-2.264,6.139,37.712,37.712,0,0,0-1.107,7.3,13.711,13.711,0,0,0,.7,5.737,3.814,3.814,0,0,0,2.415,2.264,4.92,4.92,0,0,0,3.221-.352A23.652,23.652,0,0,0,12.8,28.4c1.56-1.51,4.479-2.264,7.4-2.264s5.837.755,7.4,2.264a23.652,23.652,0,0,0,6.441,4.579,5.264,5.264,0,0,0,3.221.352,3.76,3.76,0,0,0,2.415-2.315A13.455,13.455,0,0,0,40.38,25.284Zm-2.415,5.032a2,2,0,0,1-1.208,1.258,3.475,3.475,0,0,1-2.063-.252,20.522,20.522,0,0,1-5.837-4.177c-1.912-1.912-5.284-2.868-8.655-2.868s-6.743.956-8.706,2.768a20.909,20.909,0,0,1-5.837,4.177,3.122,3.122,0,0,1-2.063.252,2,2,0,0,1-1.208-1.258,11.9,11.9,0,0,1-.5-4.831A34.711,34.711,0,0,1,2.94,18.44a24.011,24.011,0,0,1,2.114-5.686c2.768-4.982,5.988-4.177,9.813-3.17a29.519,29.519,0,0,0,4.932.956h.755a29.154,29.154,0,0,0,4.982-.956c3.824-.956,7.045-1.812,9.813,3.17a23.2,23.2,0,0,1,2.114,5.686,38.088,38.088,0,0,1,1.057,6.944A11.644,11.644,0,0,1,37.964,30.316Z" transform="translate(0 -2.378)" fill="#31274f"/>
    <path id="Path_7728" data-name="Path 7728" d="M15.571,15.472a3.058,3.058,0,0,0-1.812-.855,2.863,2.863,0,0,0-.805-1.761l-.05-.05a2.85,2.85,0,0,0-2.063-.855,2.971,2.971,0,0,0-2.063.855,2.925,2.925,0,0,0-.855,1.812,3,3,0,0,0-1.812.805l-.05.05A2.85,2.85,0,0,0,5.2,17.535,2.971,2.971,0,0,0,6.06,19.6a2.805,2.805,0,0,0,1.862.855,2.684,2.684,0,0,0,.855,1.812,2.85,2.85,0,0,0,2.063.855,2.971,2.971,0,0,0,2.063-.855,3.058,3.058,0,0,0,.855-1.812,2.684,2.684,0,0,0,1.812-.855,2.85,2.85,0,0,0,.855-2.063A2.971,2.971,0,0,0,15.571,15.472ZM14.313,18.29a1.024,1.024,0,0,1-.755.3h-.7a.955.955,0,0,0-.956.956V20.2a1.057,1.057,0,1,1-2.114,0v-.7a.955.955,0,0,0-.956-.956h-.7a1.032,1.032,0,0,1-.755-1.761l.05-.05a1.2,1.2,0,0,1,.7-.252h.7a.955.955,0,0,0,.956-.956v-.7a1.068,1.068,0,0,1,1.812-.755l.05.05a1.2,1.2,0,0,1,.252.7v.7a.955.955,0,0,0,.956.956h.7a1.068,1.068,0,0,1,.755,1.812Z" transform="translate(0 -2.378)" fill="#31274f"/>
    <circle id="Ellipse_27" data-name="Ellipse 27" cx="1.761" cy="1.761" r="1.761" transform="translate(27.195 9.823)" fill="#31274f"/>
    <circle id="Ellipse_28" data-name="Ellipse 28" cx="1.761" cy="1.761" r="1.761" transform="translate(27.195 16.968)" fill="#31274f"/>
    <circle id="Ellipse_29" data-name="Ellipse 29" cx="1.761" cy="1.761" r="1.761" transform="translate(23.623 13.396)" fill="#31274f"/>
    <circle id="Ellipse_30" data-name="Ellipse 30" cx="1.761" cy="1.761" r="1.761" transform="translate(30.769 13.396)" fill="#31274f"/>
  </g>
</svg>
